<svg xmlns="http://www.w3.org/2000/svg" width="1100" height="1450" viewBox="0 0 1100 1450">
<defs>
<linearGradient id="bg" x1="0" x2="1" y1="0" y2="1"><stop offset="0" stop-color="#040404"/><stop offset=".58" stop-color="#0d1423"/><stop offset="1" stop-color="#261706"/></linearGradient>
<linearGradient id="gold" x1="0" x2="1"><stop offset="0" stop-color="#aa7833"/><stop offset=".5" stop-color="#f5d891"/><stop offset="1" stop-color="#b3863e"/></linearGradient>
</defs>
<rect width="1100" height="1450" fill="url(#bg)"/>
<rect x="34" y="34" width="1032" height="1382" rx="44" fill="none" stroke="#d8b56a" stroke-opacity=".28" stroke-width="2"/>
<text x="780" y="250" font-size="330" fill="#d8b56a" opacity=".045" font-weight="900">A</text>
<text x="80" y="105" font-size="25" fill="#d8b56a" font-weight="900" letter-spacing="6">AIM STUDY RESULT</text>
<text x="80" y="205" font-size="70" fill="#fff" font-weight="900">2026학년도</text>
<text x="80" y="270" font-size="34" fill="#f3d48a" font-weight="900">합격 실적</text>
<text x="80" y="380" font-size="86">🏆</text>
<rect x="80" y="440" width="940" height="710" rx="38" fill="rgba(255,255,255,.075)" stroke="#d8b56a" stroke-opacity=".52"/>
<text x="160" y="530" font-size="30" fill="#cbd5e1" font-weight="800">영재학교 합격</text>
<text x="160" y="620" font-size="84" fill="url(#gold)" font-weight="900">4<tspan font-size="36" fill="#fff"> 명</tspan></text>
<line x1="160" y1="680" x2="940" y2="680" stroke="#d8b56a" stroke-opacity=".32" stroke-width="2"/>
<text x="160" y="750" font-size="30" fill="#cbd5e1" font-weight="800">과학고 합격</text>
<text x="160" y="840" font-size="84" fill="url(#gold)" font-weight="900">14<tspan font-size="36" fill="#fff"> 명</tspan></text>
<line x1="160" y1="900" x2="940" y2="900" stroke="#d8b56a" stroke-opacity=".32" stroke-width="2"/>
<text x="160" y="970" font-size="30" fill="#cbd5e1" font-weight="800">자사고 · 최상위 일반고</text>
<text x="160" y="1060" font-size="84" fill="url(#gold)" font-weight="900">6<tspan font-size="36" fill="#fff"> 명</tspan></text>
<text x="160" y="1110" font-size="22" fill="#d1d5db">천안북일고 1명 · 상산고 2명 · 세종고 2명</text>
<rect x="160" y="1210" width="780" height="120" rx="60" fill="url(#gold)"/>
<text x="300" y="1288" font-size="36" fill="#111" font-weight="900">TOTAL 24명</text>
<text x="80" y="1390" font-size="26" fill="#d8b56a" font-weight="900">에임스터디학원</text>
</svg>